<svg version="1.2" xmlns="http://www.w3.org/2000/svg" viewBox="0 0 500 500" width="500" height="500"><style>.a{fill:#fff}</style><path fill-rule="evenodd" d="m50 0h400c27.6 0 50 22.4 50 50v400c0 27.6-22.4 50-50 50h-400c-27.6 0-50-22.4-50-50v-400c0-27.6 22.4-50 50-50z"/><path fill-rule="evenodd" class="a" d="m109.1 49.9h140.2c120.9 0 141.1 0.4 146 2.8 3.2 1.6 6.2 4.4 6.7 6.2 0.5 1.9 0.5 8.5-0.1 14.8-0.5 6.3-1.4 15.3-1.8 20-0.5 4.7-1.3 12.9-1.8 18.1-0.6 5.3-1.5 14.7-2 21-0.5 6.3-3.5 36.3-6.7 66.7-3.2 30.4-6.1 58.7-6.5 62.9-0.4 4.2-1.3 13.7-2 21-0.7 7.3-3.8 37.8-6.9 67.7-3.1 29.9-6.1 58.6-6.6 63.8-0.6 5.3-1.3 13.4-1.7 18.2-0.4 6.4-1.8 9.6-10.6 17.1h-219.3l-4.7-4.8c-2.6-2.6-4.8-5.8-4.8-7.1 0-1.3-1.6-23.4-3.6-49.1-2-25.7-3.7-48-3.7-49.6 0-1.5-0.5-8.4-1.1-15.2-0.6-6.8-2.7-33.9-4.7-60.1-2-26.2-3.7-48.9-3.7-50.5 0-1.6-0.6-8.9-1.2-16.2-0.6-7.3-1.5-18.5-2-24.8-0.4-6.3-2.1-27.3-3.6-46.7-1.5-19.4-2.7-36.5-2.7-38.1 0.1-1.6-0.6-8-1.4-14.3-1.5-11.1-1.4-11.6 4.3-17.6zm35.4 110.7c-1.4 3-1.6 6.2-0.4 9.4 1 2.6 1.7 8.6 1.6 13.3-0.1 4.7 0.3 14.2 0.9 21 0.6 6.8 2.7 33.4 4.8 59.1 2 25.7 3.7 48.4 3.7 50.5 0 2.1 0.5 9.4 1.1 16.2 0.5 6.8 2.2 27 3.7 44.8 1.8 21.2 3.6 33.2 5.2 34.7 1.9 1.8 21.8 2.4 80.7 2.5 61.3 0.1 78.9-0.4 81.3-2.3 2.1-1.7 3.8-8.1 5.2-19.6 1.2-9.5 2.5-21.5 3-26.7 0.4-5.3 0.9-11.3 1-13.4 0.1-2.1 2.3-23.1 4.8-46.7 2.6-23.6 5-46.7 5.5-51.5 0.4-4.7 1.3-15.8 1.9-24.7 0.7-9.9 0.4-17.2-0.7-18.6-1.5-1.8-7.6-2.2-23.4-1.5-12.5 0.5-25 0-30-1.3-4.8-1.1-12.9-4.2-18.1-6.8-5.3-2.7-16.4-10-24.8-16.2-8.4-6.3-16.4-12.9-17.7-14.5-1.4-1.7-3.1-3-3.9-2.8-0.7 0.1-4.3-1.3-8-3.2-3.6-1.8-11.4-4.8-17.1-6.6-6.7-2.1-18.1-3.5-31.5-3.7-13.7-0.3-22 0.3-23.9 1.8-1.5 1.2-3.8 4.2-4.9 6.8z"/></svg>